<svg xmlns="http://www.w3.org/2000/svg" width="600" height="297.607" viewBox="0 0 600 297.607">
  <g id="Grupo_17" data-name="Grupo 17" transform="translate(-638.001 2610)">
    <path id="Caminho_3" data-name="Caminho 3" d="M57.205,102.018V51.641H65.4V70.224H90.172V51.641h8.188v50.378H90.172V77.554H65.4v24.464Z" transform="translate(724.687 -2531.746)"/>
    <path id="Caminho_4" data-name="Caminho 4" d="M83.346,102.018V51.641H111.46v6.952H91.536V71.22H111.46v7.194H91.536V94.689H111.46v7.33Z" transform="translate(764.3 -2531.746)"/>
    <path id="Caminho_5" data-name="Caminho 5" d="M125.1,50.848l-24.389,52.37h8.6l5.851-12.967h19.947l5.707,12.967h8.673ZM118.2,83.412l6.927-15.776,7.1,15.776Z" transform="translate(790.62 -2532.947)"/>
    <path id="Caminho_6" data-name="Caminho 6" d="M127.174,102.018V51.641h8.19V94.689h18.307v7.33Z" transform="translate(830.715 -2531.746)"/>
    <path id="Caminho_7" data-name="Caminho 7" d="M165,58.592v43.425h-8.19V58.592H143.424v-6.95h34.891v6.95Z" transform="translate(855.34 -2531.744)"/>
    <path id="Caminho_8" data-name="Caminho 8" d="M164.968,102.018V51.641h8.19V70.224h24.776V51.641h8.187v50.378h-8.187V77.554H173.158v24.464Z" transform="translate(887.987 -2531.746)"/>
    <path id="Caminho_9" data-name="Caminho 9" d="M166.39,33.56,180.577,65.1H152.543ZM166.348,0,117.595,104.7h17.19l11.7-25.926H186.36L197.775,104.7h17.333Z" transform="translate(816.199 -2610)"/>
    <path id="Caminho_10" data-name="Caminho 10" d="M108.127,35.645V18.877A34.619,34.619,0,0,0,90.794,14.79c-21.564,0-36.216,14.094-36.216,35.089,0,20.714,14.232,35.084,34.664,35.084a37.538,37.538,0,0,0,18.885-4.646V63.125A20.728,20.728,0,0,1,90.932,71.3c-12.964,0-20.855-8.172-20.855-21.843,0-13.105,8.034-21.562,20.151-21.562a23.738,23.738,0,0,1,17.9,7.752" transform="translate(720.706 -2587.588)"/>
    <path id="Caminho_11" data-name="Caminho 11" d="M133.166,104.7,94.271,0,66.793,69.572,39.036,0,0,104.7H16.347L38.842,40.326l27.951,68.32,27.666-68.32,22.5,64.373Z" transform="translate(638.001 -2610)"/>
    <path id="Caminho_12" data-name="Caminho 12" d="M166.322,27.529l.845-16.486A55,55,0,0,0,134.616.617c-15.08,0-28.182,5.212-38.188,15.077S81.069,38.805,81.069,53.6c0,14.657,5.355,28.182,15.218,37.909S119.4,106.441,134.9,106.441c12.119,0,22.4-3.1,31.284-9.44V78.543C156.318,87,145.606,91.225,133.63,91.225c-20.15,0-35.512-15.364-35.512-37.486,0-22.4,15.08-38.045,37.2-38.045,11.415,0,21.7,3.947,31,11.835" transform="translate(760.849 -2609.065)"/>
    <path id="Caminho_13" data-name="Caminho 13" d="M202.736,104.7h15.077V36.372l74.97,72.274V3.947H277.7V72.07L202.736,0Z" transform="translate(945.218 -2610)"/>
    <path id="Caminho_14" data-name="Caminho 14" d="M160.114,104.7h15.077V36.372l74.97,72.274V3.947h-15.08V72.07L160.114,0Z" transform="translate(880.631 -2610)"/>
    <path id="Caminho_15" data-name="Caminho 15" d="M56.928,97.8h2.737l1.675-3.68h6.283L69.3,97.8h2.739L64.482,81.309Zm7.554-10.768,2.07,4.714h-4.14Z" transform="translate(724.267 -2411.32)"/>
    <path id="Caminho_16" data-name="Caminho 16" d="M75.557,92.807,64.54,81.264v16.6h2.53V87.454l11.017,11.54V82.489h-2.53Z" transform="translate(735.802 -2411.388)"/>
    <rect id="Retângulo_11" data-name="Retângulo 11" width="2.53" height="15.376" transform="translate(829.138 -2328.897)"/>
    <path id="Caminho_17" data-name="Caminho 17" d="M81.806,81.751H79.354V97.127h2.53v-6.15h.7c3.436,0,5.489-1.731,5.489-4.633,0-3.174-1.934-4.593-6.268-4.593m3.854,4.555c0,1.637-1.059,2.337-3.542,2.337h-.234V84.088h.136c2.551,0,3.64.664,3.64,2.219" transform="translate(758.25 -2410.65)"/>
    <path id="Caminho_18" data-name="Caminho 18" d="M92.571,91.594h3.763a4.676,4.676,0,0,1-4.425,3.657,5.648,5.648,0,0,1-5.353-5.642,5.435,5.435,0,0,1,9.838-3.355l.236.322,1.806-1.723-.2-.252a8,8,0,1,0-6.444,13.027,7.146,7.146,0,0,0,7.3-7.476v-.933h-6.52Z" transform="translate(765.33 -2410.837)"/>
    <path id="Caminho_19" data-name="Caminho 19" d="M104.54,87.668H98.254V81.752H95.721V97.128h2.533V90.083h6.286v7.046h2.53V81.752h-2.53Z" transform="translate(783.052 -2410.649)"/>
    <path id="Caminho_20" data-name="Caminho 20" d="M102.552,97.128h8.585V94.754h-6.054V89.907h5.878V87.532h-5.878V84.126h6.054V81.752h-8.585Z" transform="translate(793.404 -2410.649)"/>
    <path id="Caminho_21" data-name="Caminho 21" d="M107.355,97.8h2.737l1.675-3.68h6.283l1.673,3.68h2.739l-7.554-16.491Zm7.554-10.768,2.07,4.714h-4.14Z" transform="translate(800.682 -2411.32)"/>
    <path id="Caminho_22" data-name="Caminho 22" d="M117.568,81.751h-2.53V97.128h6.988V94.753h-4.457Z" transform="translate(812.323 -2410.65)"/>
    <path id="Caminho_23" data-name="Caminho 23" d="M119.021,84.126H122.5v13h2.53v-13h3.484V81.752h-9.5Z" transform="translate(818.359 -2410.65)"/>
    <path id="Caminho_24" data-name="Caminho 24" d="M133.393,87.668H127.1V81.752h-2.53V97.128h2.53V90.083h6.288v7.046h2.53V81.752h-2.53Z" transform="translate(826.775 -2410.649)"/>
    <path id="Caminho_25" data-name="Caminho 25" d="M143.019,81.628a8,8,0,1,0-.156,16,8.3,8.3,0,0,0,4.03-1.079l.176-.1V93.3l-.586.523A5.549,5.549,0,1,1,142.843,84a5.612,5.612,0,0,1,3.642,1.353l.584.518v-3.1l-.169-.1a7.412,7.412,0,0,0-3.881-1.044" transform="translate(842.365 -2410.837)"/>
    <path id="Caminho_26" data-name="Caminho 26" d="M149.477,81.628a8.028,8.028,0,0,0-8.039,8,8.039,8.039,0,0,0,16.078,0,8.028,8.028,0,0,0-8.039-8m0,13.585a5.553,5.553,0,0,1-5.509-5.587,5.509,5.509,0,1,1,11.017,0,5.555,5.555,0,0,1-5.509,5.587" transform="translate(852.33 -2410.837)"/>
    <path id="Caminho_27" data-name="Caminho 27" d="M157.778,93.033l-5.169-11.855L149.314,98h2.608l1.572-8.907,4.284,9.74,4.284-9.74L163.634,98h2.608l-3.3-16.82Z" transform="translate(864.264 -2411.519)"/>
    <path id="Caminho_28" data-name="Caminho 28" d="M160.537,81.751h-2.452V97.127h2.53v-6.15h.7c3.436,0,5.489-1.731,5.489-4.633,0-3.174-1.934-4.593-6.268-4.593m3.854,4.555c0,1.637-1.059,2.337-3.542,2.337h-.234V84.088h.136c2.551,0,3.64.664,3.64,2.219" transform="translate(877.556 -2410.65)"/>
    <path id="Caminho_29" data-name="Caminho 29" d="M162.145,97.8h2.737l1.675-3.68h6.283l1.673,3.68h2.739L169.7,81.309ZM169.7,87.031l2.07,4.714h-4.14Z" transform="translate(883.709 -2411.32)"/>
    <path id="Caminho_30" data-name="Caminho 30" d="M180.62,92.807,169.6,81.264v16.6h2.53V87.454l11.017,11.54V82.489h-2.53Z" transform="translate(895.01 -2411.388)"/>
    <path id="Caminho_31" data-name="Caminho 31" d="M186.293,81.751l-3.4,5.914-3.4-5.914h-2.913l5.043,8.736v6.641h2.533V90.487l5.043-8.736Z" transform="translate(905.593 -2410.65)"/>
    <text id="BRAZIL" transform="translate(873.97 -2381.158)" font-size="32" font-family="Futura-Medium, Futura" font-weight="500" letter-spacing="0.08em"><tspan x="0" y="0">BRAZIL</tspan></text>
  </g>
</svg>
